<svg version="1.1" id="Layer_1" xmlns="http://www.w3.org/2000/svg" xmlns:xlink="http://www.w3.org/1999/xlink"
	 viewBox="0 0 327.605 327.605" xml:space="preserve">
<path style="fill:#FAD0B0;" d="M187.355,221.383l-4.552-21.075h-38l-4.552,21.075c-3.626,16.789-8.559,33.269-14.754,49.29l0,0
	c-10.222,26.435,8.194,55.748,36.513,56.896c0.595,0.024,1.192,0.036,1.793,0.036l0,0c0.601,0,1.198-0.012,1.793-0.036
	c28.319-1.148,46.734-30.461,36.513-56.896l0,0C195.914,254.652,190.981,238.172,187.355,221.383z"/>
<path style="fill:#E4BFA2;" d="M163.802,200.307h-19l-4.552,21.075c-3.626,16.789-8.559,33.269-14.754,49.29l0,0
	c-10.222,26.435,8.194,55.748,36.513,56.896c0.595,0.024,1.192,0.036,1.793,0.036l0,0V200.307z"/>
<rect x="140.302" y="113.105" style="fill:#84B2D3;" width="47" height="69.401"/>
<rect x="140.302" y="113.105" style="fill:#6F95B0;" width="23.5" height="69.401"/>
<g>
	<path style="fill:#91C8F5;" d="M163.802,0c-35.174,0-63.689,28.514-63.689,63.689s28.514,63.689,63.689,63.689
		s63.689-28.514,63.689-63.689S198.977,0,163.802,0z M163.802,95.492c-17.565,0-31.804-14.239-31.804-31.804
		s14.239-31.804,31.804-31.804s31.804,14.239,31.804,31.804S181.367,95.492,163.802,95.492z"/>
</g>
<g>
	<path style="fill:#84B2D3;" d="M163.802,0c-35.174,0-63.689,28.514-63.689,63.689s28.514,63.689,63.689,63.689V95.492
		c-17.565,0-31.804-14.239-31.804-31.804s14.239-31.804,31.804-31.804V0z"/>
</g>
<path style="fill:#91C8F5;" d="M229.996,168.764H97.608c-13.885,0-25.141,11.256-25.141,25.141v10.902h182.671v-10.902
	C255.138,180.02,243.882,168.764,229.996,168.764z"/>
<path style="fill:#84B2D3;" d="M97.608,168.764c-13.885,0-25.141,11.256-25.141,25.141v10.902h91.335v-36.043H97.608z"/>
</svg>
